<svg xmlns="http://www.w3.org/2000/svg" fill="currentColor" viewBox="0 0 24 24">
  <path fill-rule="evenodd" d="M15 3H9v4a1 1 0 0 0 1 1h4a1 1 0 0 0 1-1V3ZM9 2a1 1 0 0 0-1 1v4a2 2 0 0 0 2 2h4a2 2 0 0 0 2-2V3a1 1 0 0 0-1-1H9Z" clip-rule="evenodd"/>
  <path fill-rule="evenodd" d="M15.172 3H8.828l-1.422 7.486a2.014 2.014 0 0 1-1.561 1.59c-.276.06-.558.122-.845.188v6.63a2 2 0 0 1 2 2V21h10v-.105a2 2 0 0 1 2-2v-6.62a68.83 68.83 0 0 0-.822-.172 2.012 2.012 0 0 1-1.58-1.594L15.173 3Zm0-1a1 1 0 0 1 .982.813l1.427 7.51c.077.403.393.718.795.8.276.056.558.115.845.177a.991.991 0 0 1 .779.971v6.624a1 1 0 0 1-1 1 1 1 0 0 0-1 1V21a1 1 0 0 1-1 1H7a1 1 0 0 1-1-1v-.105a1 1 0 0 0-1-1 1 1 0 0 1-1-1v-6.636a.99.99 0 0 1 .765-.967c.296-.068.586-.133.871-.194.399-.085.711-.398.787-.799l1.422-7.486A1 1 0 0 1 8.828 2h6.344Z" clip-rule="evenodd"/>
  <path fill-rule="evenodd" d="M19 19.5H5v-1h14v1Zm-6.979-8.29c-2.218.002-4.46.423-7.38 1.28l-.282-.96c2.966-.87 5.31-1.318 7.662-1.32 2.352-.001 4.682.444 7.622 1.321l-.286.958c-2.89-.862-5.117-1.28-7.335-1.279Z" clip-rule="evenodd"/>
</svg>
