<?xml version="1.0" encoding="utf-8"?>
<!-- Generator: Adobe Illustrator 28.0.0, SVG Export Plug-In . SVG Version: 6.00 Build 0)  -->
<svg version="1.1" id="all-assort" class="all-asort" xmlns="http://www.w3.org/2000/svg" xmlns:xlink="http://www.w3.org/1999/xlink" x="0px" y="0px"
	 viewBox="0 0 512 512" style="enable-background:new 0 0 512 512;" xml:space="preserve">
<style type="text/css">
	.st0{stroke-width:23;stroke-miterlimit:10;}
	.st1{stroke-width:23;stroke-miterlimit:10;}
</style>
<path class="st0" d="M204.5,215.7H50c-6.6,0-12-5.4-12-12v-154c0-6.6,5.4-12,12-12h154.5c6.6,0,12,5.4,12,12v154
	C216.5,210.3,211.1,215.7,204.5,215.7z"/>
<path class="st0" d="M204.5,488.3H50c-6.6,0-12-5.4-12-12v-154c0-6.6,5.4-12,12-12h154.5c6.6,0,12,5.4,12,12v154
	C216.5,482.9,211.1,488.3,204.5,488.3z"/>
<path class="st0" d="M474.5,488.3H320c-6.6,0-12-5.4-12-12v-154c0-6.6,5.4-12,12-12h154.5c6.6,0,12,5.4,12,12v154
	C486.5,482.9,481.1,488.3,474.5,488.3z"/>
<path class="st1" d="M487,165.8L377.8,275.1c-4.7,4.7-12.3,4.7-17,0L251.9,166.2c-4.7-4.7-4.7-12.3,0-17L361.2,40
	c4.7-4.7,12.3-4.7,17,0L487,148.9C491.7,153.5,491.7,161.2,487,165.8z"/>
</svg>
