<svg xmlns="http://www.w3.org/2000/svg"  fill="currentColor" viewBox="0 0 24 24">
  <path fill-rule="evenodd" d="M13.545 6a1 1 0 0 1-.972-1.236l.244-1A1 1 0 0 1 13.788 3h.507a1 1 0 0 1 .972.764l.243 1A1 1 0 0 1 14.538 6h-.993Zm-3.088 0a1 1 0 0 0 .972-.764l.602-2.472A1 1 0 0 1 13.002 2h2.079a1 1 0 0 1 .971.764l.75 3.08A.204.204 0 0 0 17 6a1 1 0 0 1 1 1v14a1 1 0 0 1-1 1H8a1 1 0 0 1-1-1V7a1 1 0 0 1 1-1h2.457ZM17 7.946A.946.946 0 0 0 16.054 7H9a1 1 0 0 0-1 1v12a1 1 0 0 0 1 1h7a1 1 0 0 0 1-1V7.946Z" clip-rule="evenodd"/>
</svg>
