<svg xmlns="http://www.w3.org/2000/svg"  fill="currentColor" viewBox="0 0 24 24">
  <path fill-rule="evenodd" d="M12 2.687c-.75 1.217-1.758 1.917-3 2.476V8.75c.304.228.5.591.5 1v.373c0 .409-.196.772-.5 1v10.175c.772.445 1.851.702 3 .702s2.228-.257 3-.702V11.123a1.248 1.248 0 0 1-.5-1V9.75c0-.409.196-.772.5-1V5.176c-.515-.219-1.052-.486-1.562-.873A5.699 5.699 0 0 1 12 2.687Zm3.957 6.703A.249.249 0 0 0 16 9.25V4.705a.301.301 0 0 0-.191-.28c-1.26-.497-2.375-1.036-3.226-2.752a.308.308 0 0 0-.274-.173h-.616a.31.31 0 0 0-.276.175c-.702 1.433-1.72 2.128-3.228 2.749a.304.304 0 0 0-.189.28V9.25a.249.249 0 0 0 .25.25.25.25 0 0 1 .25.25v.373a.25.25 0 0 1-.25.25.25.25 0 0 0-.25.25v11.06c0 .091.042.179.117.233 1.995 1.445 5.77 1.445 7.766 0a.287.287 0 0 0 .117-.234v-11.06a.249.249 0 0 0-.25-.25.25.25 0 0 1-.25-.25V9.75a.25.25 0 0 1 .25-.25.25.25 0 0 0 .207-.11Z" clip-rule="evenodd"/>
  <path fill-rule="evenodd" d="M16 9.5H8v-1h8v1Zm0 2H8v-1h8v1Zm.032-6.001c-3.135.2-4.906.202-8.064 0l.064-.998c3.115.2 4.844.198 7.936 0l.064.998Z" clip-rule="evenodd"/>
</svg>
