<?xml version="1.0" encoding="utf-8"?>
<svg version="1.1" id="Слой_3" xmlns:x="&ns_extend;" xmlns:i="&ns_ai;" xmlns:graph="&ns_graphs;"
     xmlns="http://www.w3.org/2000/svg" xmlns:xlink="http://www.w3.org/1999/xlink" x="0px" y="0px" viewBox="0 0 130 137.4"
     style="enable-background:new 0 0 130 137.4;" xml:space="preserve" width="100%" height="100%">
<g>
    <polygon points="127,125.5 127.8,108.9 126.6,99.9 128.2,79.3 127.1,57 129.3,38.4 127.7,21.2 129.3,1.4 113.4,2.6 87.5,2.9 
        76.5,0 52.1,3.3 43.6,0 32.9,2.5 31.7,2.5 21.2,2.6 1.2,0.9 3.2,31.4 1.2,46.8 3.4,71.5 2.3,106.7 4.4,120 0,137.4 21.4,134 
        40.2,134.5 43.6,120.6 20.2,77.3 25.9,33.9 67.5,12.4 105.1,27.6 112.7,70.1 84.4,86.8 62.9,74.8 62.5,52.9 84.5,48.3 71.4,59.3 
        72.7,68.6 84.4,73.7 99.9,61.7 90.9,38.8 69.5,34.4 51.4,51.3 52.1,73.4 95.2,117.2 97.6,134.8 112.7,134.4 130.6,135.6 	"/>
    <polygon points="78.5,114.9 75.9,121.9 79.7,128 87.5,129.6 89.3,121.9 85.7,116.5 	"/>
    <polygon points="66.8,99.9 64.4,106.4 67.9,112 75.1,113.5 76.8,106.4 73.5,101.4 	"/>
    <polygon points="53.6,86.9 51.4,92.9 54.6,98 61.1,99.3 62.6,92.9 59.6,88.3 	"/>
    <polygon points="44.5,73.6 41.5,78.6 43.6,83.8 49.3,86.1 51.7,80.4 49.8,75.8 	"/>
    <polygon points="44.5,59.1 40.4,61.8 40,66.4 43.5,70.3 47.4,67 47.7,62.7 	"/>
    <polygon points="46.4,47 42.4,48.5 41.2,52.3 43.4,56.2 47.3,54.2 48.3,50.7 	"/>
    <polygon points="54.1,37.3 50.7,37.1 48.5,39.5 48.9,43.1 52.4,42.8 54.3,40.6 	"/>
    <polygon points="65.5,30.8 62.4,29.4 59.5,30.9 58.5,34.3 61.9,35.4 64.5,34 	"/>
    <polygon points="69.2,30.7 90.3,35.4 69.2,25.9 	"/>
</g>
</svg>