<?xml version="1.0" encoding="utf-8"?>
<!-- Generator: Adobe Illustrator 28.0.0, SVG Export Plug-In . SVG Version: 6.00 Build 0)  -->
<svg version="1.1" id="Слой_3" xmlns="http://www.w3.org/2000/svg" xmlns:xlink="http://www.w3.org/1999/xlink" viewBox="0 0 841.9 595.3" fill="currentColor" style="width: 100%; height: auto;" xml:space="preserve">
<style type="text/css">
    .st0{display:none;}
    .st1{display:inline;}
</style>
<g>
    <g class="st0">
        <g class="st1">
            <path d="M526.4,219.7c-1.3-0.6-3-1-4.8-1c-1.9,0-3.5,0.3-4.8,1c-1.3,0.6-2.4,1.6-3.1,2.8c-0.7,1.2-1.1,2.7-1.1,4.5v19.3
                c0,1.7,0.4,3.2,1.1,4.5c0.7,1.2,1.7,2.2,3.1,2.8c1.3,0.7,3,1,4.8,1c1.9,0,3.5-0.3,4.8-1c1.3-0.7,2.4-1.6,3.1-2.8
                c0.7-1.2,1.1-2.7,1.1-4.5v-19.3c0-1.7-0.4-3.2-1.1-4.5C528.8,221.2,527.7,220.3,526.4,219.7z M524.5,245.5c0,0.6-0.1,1.2-0.3,1.6
                c-0.2,0.5-0.6,0.8-1,1c-0.4,0.2-1,0.4-1.6,0.4c-0.6,0-1.1-0.1-1.6-0.4s-0.8-0.6-1-1s-0.3-1-0.3-1.6v-17.8c0-0.6,0.1-1.2,0.3-1.6
                s0.6-0.8,1-1c0.4-0.2,1-0.4,1.6-0.4c0.6,0,1.1,0.1,1.6,0.4c0.4,0.2,0.8,0.6,1,1c0.2,0.5,0.3,1,0.3,1.6V245.5z"/>
            <path d="M537.8,253.5c1.3,0.7,2.8,1,4.5,1c1.8,0,3.3-0.3,4.6-1c1.3-0.7,2.2-1.7,2.9-3.1c0.7-1.3,1-3,1-4.8v-2.8h-6.1v2.8
                c0,0.6-0.1,1.1-0.3,1.6c-0.2,0.4-0.4,0.8-0.8,1c-0.4,0.2-0.8,0.3-1.3,0.3c-0.5,0-0.9-0.1-1.3-0.3c-0.4-0.2-0.6-0.6-0.8-1
                c-0.2-0.4-0.3-0.9-0.3-1.5v-18c0-0.6,0.1-1.1,0.3-1.5c0.2-0.4,0.5-0.8,0.8-1c0.4-0.2,0.8-0.3,1.3-0.3c0.5,0,0.9,0.1,1.3,0.4
                c0.4,0.2,0.6,0.6,0.8,1c0.2,0.4,0.3,0.9,0.3,1.5v2.8h6.1v-2.8c0-1.9-0.3-3.5-1-4.8c-0.7-1.3-1.6-2.4-2.9-3.1
                c-1.3-0.7-2.8-1.1-4.6-1.1c-1.8,0-3.3,0.4-4.5,1.1c-1.3,0.7-2.2,1.7-2.9,3.1c-0.7,1.3-1,2.9-1,4.8v18c0,1.9,0.3,3.5,1,4.8
                C535.5,251.7,536.5,252.8,537.8,253.5z"/>
            <polygon points="557.9,254.2 563.9,254.2 563.9,224.8 569.7,224.8 569.7,219 552.1,219 552.1,224.8 557.9,224.8 			"/>
            <path d="M575.7,253.5c1.3,0.7,3,1,4.8,1c1.9,0,3.5-0.3,4.8-1c1.3-0.7,2.4-1.6,3.1-2.8c0.7-1.2,1.1-2.7,1.1-4.5v-19.3
                c0-1.7-0.4-3.2-1.1-4.5c-0.7-1.2-1.7-2.2-3.1-2.8c-1.3-0.6-3-1-4.8-1c-1.9,0-3.5,0.3-4.8,1c-1.3,0.6-2.4,1.6-3.1,2.8
                c-0.7,1.2-1.1,2.7-1.1,4.5v19.3c0,1.7,0.4,3.2,1.1,4.5C573.4,251.9,574.4,252.9,575.7,253.5z M577.7,227.7c0-0.6,0.1-1.2,0.3-1.6
                c0.2-0.5,0.6-0.8,1-1c0.4-0.2,1-0.4,1.6-0.4c0.6,0,1.1,0.1,1.6,0.4c0.4,0.2,0.8,0.6,1,1s0.3,1,0.3,1.6v17.8
                c0,0.6-0.1,1.2-0.3,1.6s-0.6,0.8-1,1c-0.4,0.2-1,0.4-1.6,0.4c-0.6,0-1.1-0.1-1.6-0.4s-0.8-0.6-1-1c-0.2-0.5-0.3-1-0.3-1.6V227.7z
                "/>
            <path d="M599.3,240.5h3.2c1.7,0,3.2-0.3,4.4-0.9c1.2-0.6,2.2-1.5,2.8-2.6c0.7-1.1,1-2.5,1-4.2v-5.9c0-1.7-0.3-3.1-1-4.3
                c-0.6-1.2-1.6-2.1-2.8-2.7s-2.7-0.9-4.5-0.9h-3.2h-3.2h-2.8v35.1h6V240.5z M602.4,224.8c0.5,0,0.9,0.1,1.3,0.4
                c0.4,0.2,0.6,0.6,0.8,1c0.2,0.5,0.3,1,0.3,1.6v4.1c0,0.6-0.1,1.1-0.3,1.5c-0.2,0.4-0.5,0.8-0.8,1c-0.4,0.2-0.8,0.3-1.3,0.3h-3
                v-10H602.4z"/>
            <path d="M624.9,245.8c0,0.9-0.2,1.5-0.6,2c-0.4,0.5-1,0.7-1.8,0.7c-0.7,0-1.3-0.2-1.7-0.7c-0.4-0.5-0.6-1.1-0.6-2V219h-6v26.6
				c0,1.9,0.3,3.4,1,4.8c0.7,1.3,1.6,2.3,2.9,3c1.3,0.7,2.8,1,4.5,1c1.8,0,3.3-0.3,4.5-1c1.3-0.7,2.2-1.7,2.9-3c0.7-1.3,1-2.9,1-4.8
				V219h-6V245.8z"/>
			<path d="M650,238.7c-0.6-1.1-1.3-1.9-2.1-2.5c-0.8-0.6-1.9-1.3-3.2-2c0,0-0.1,0-0.1,0c0,0-0.1,0-0.1,0c-0.2-0.1-0.4-0.2-0.6-0.3
				c-0.2-0.1-0.4-0.2-0.5-0.3c-0.9-0.5-1.7-0.9-2.2-1.2c-0.5-0.3-1-0.7-1.3-1.2c-0.3-0.5-0.5-1.1-0.5-1.7v-2.3
				c0-0.8,0.2-1.4,0.7-1.9c0.5-0.5,1.1-0.7,2-0.7c0.8,0,1.5,0.3,1.9,0.8c0.5,0.5,0.7,1.2,0.7,2.1v2l6-0.1v-2c0-1.8-0.3-3.4-1-4.7
				c-0.7-1.3-1.7-2.3-2.9-3c-1.3-0.7-2.8-1-4.6-1c-1.8,0-3.4,0.3-4.7,1c-1.3,0.7-2.3,1.7-3,2.9c-0.7,1.3-1,2.8-1,4.6v1.8
				c0,1.7,0.3,3.2,0.9,4.3c0.6,1.2,1.4,2.1,2.3,2.8c0.9,0.7,2,1.4,3.3,2.1l0.3,0.1c0.1,0,0.1,0.1,0.2,0.1c0.1,0,0.1,0.1,0.2,0.1
				c1,0.5,1.8,0.9,2.3,1.2c0.6,0.3,1,0.8,1.4,1.2c0.4,0.5,0.5,1,0.5,1.7v3.1c0,0.9-0.2,1.6-0.7,2.1c-0.5,0.5-1.1,0.7-2,0.7
				c-0.9,0-1.6-0.3-2.1-0.8c-0.5-0.5-0.7-1.2-0.7-2.1v-1.9l-6,0v1.9c0,1.8,0.4,3.4,1.1,4.7c0.7,1.3,1.7,2.3,3,3c1.3,0.7,2.9,1,4.7,1
				c1.8,0,3.4-0.3,4.7-1c1.3-0.7,2.3-1.7,3-3c0.7-1.3,1-2.9,1-4.7v-2.9C650.9,241.2,650.6,239.8,650,238.7z"/>
			<path d="M526.6,284.5c-0.8-0.6-1.9-1.3-3.2-2c0,0-0.1,0-0.1,0c0,0-0.1,0-0.1,0c-0.2-0.1-0.4-0.2-0.6-0.3
				c-0.2-0.1-0.4-0.2-0.5-0.3c-0.9-0.5-1.7-0.9-2.2-1.2c-0.5-0.3-1-0.7-1.3-1.2c-0.3-0.5-0.5-1.1-0.5-1.7v-2.3
				c0-0.8,0.2-1.4,0.7-1.9c0.5-0.5,1.1-0.7,2-0.7c0.8,0,1.5,0.3,1.9,0.8c0.5,0.5,0.7,1.2,0.7,2.1v2l6-0.1v-2c0-1.8-0.3-3.4-1-4.7
				c-0.7-1.3-1.7-2.3-2.9-3c-1.3-0.7-2.8-1-4.6-1c-1.8,0-3.4,0.3-4.7,1s-2.3,1.7-3,2.9c-0.7,1.3-1,2.8-1,4.6v1.8
				c0,1.7,0.3,3.2,0.9,4.3s1.4,2.1,2.3,2.8c0.9,0.7,2,1.4,3.3,2.1l0.3,0.1c0.1,0,0.1,0.1,0.2,0.1c0.1,0,0.1,0.1,0.2,0.1
				c1,0.5,1.8,0.9,2.3,1.2c0.6,0.3,1,0.8,1.4,1.2c0.4,0.5,0.5,1,0.5,1.7v3.1c0,0.9-0.2,1.6-0.7,2.1c-0.5,0.5-1.1,0.7-2,0.7
				c-0.9,0-1.6-0.3-2.1-0.8c-0.5-0.5-0.7-1.2-0.7-2.1v-1.9l-6,0v1.9c0,1.8,0.3,3.4,1,4.7c0.7,1.3,1.7,2.3,3,3c1.3,0.7,2.9,1,4.7,1
				c1.8,0,3.4-0.3,4.7-1c1.3-0.7,2.3-1.7,3-3c0.7-1.3,1-2.9,1-4.7v-2.9c0-1.7-0.3-3.1-0.9-4.2S527.4,285.1,526.6,284.5z"/>
			<polygon points="538.9,281.6 543.5,296.3 546.5,296.3 551.2,280.7 551.2,302.5 556.5,302.5 556.5,267.4 550.9,267.4 545,286.5 
				539.2,267.4 533.4,267.4 533.4,302.5 538.9,302.5 			"/>
			<path d="M577.7,299.1c0.7-1.2,1.1-2.7,1.1-4.5v-19.3c0-1.7-0.4-3.2-1.1-4.5c-0.7-1.2-1.7-2.2-3.1-2.8c-1.3-0.6-3-1-4.8-1
				c-1.9,0-3.5,0.3-4.8,1c-1.3,0.6-2.4,1.6-3.1,2.8c-0.7,1.2-1.1,2.7-1.1,4.5v19.3c0,1.7,0.4,3.2,1.1,4.5c0.7,1.2,1.7,2.2,3.1,2.8
				c1.3,0.7,3,1,4.8,1c1.9,0,3.5-0.3,4.8-1C576,301.2,577,300.3,577.7,299.1z M572.7,293.8c0,0.6-0.1,1.2-0.3,1.6
				c-0.2,0.5-0.6,0.8-1,1c-0.4,0.2-1,0.4-1.6,0.4c-0.6,0-1.1-0.1-1.6-0.4s-0.8-0.6-1-1c-0.2-0.5-0.3-1-0.3-1.6V276
				c0-0.6,0.1-1.2,0.3-1.6c0.2-0.5,0.6-0.8,1-1c0.4-0.2,1-0.4,1.6-0.4c0.6,0,1.1,0.1,1.6,0.4c0.4,0.2,0.8,0.6,1,1
				c0.2,0.5,0.3,1,0.3,1.6V293.8z"/>
			<polygon points="582.6,267.4 582.6,302.5 588.6,302.5 588.6,294.2 591.2,288.6 595.5,302.5 602.1,302.5 594.4,281.7 601,267.4 
				594.2,267.4 588.6,282.9 588.6,267.4 			"/>
			<polygon points="606.9,267.4 604.2,267.4 604.2,302.5 606.9,302.5 610.2,302.5 619.8,302.5 619.8,296.7 610.2,296.7 610.2,288 
				618.6,288 618.6,282.1 610.2,282.1 610.2,273.2 619.8,273.2 619.8,267.4 610.2,267.4 			"/>
			<path d="M526.6,332.9c-0.8-0.6-1.9-1.3-3.2-2c0,0-0.1,0-0.1,0c0,0-0.1,0-0.1,0c-0.2-0.1-0.4-0.2-0.6-0.3
				c-0.2-0.1-0.4-0.2-0.5-0.3c-0.9-0.5-1.7-0.9-2.2-1.2c-0.5-0.3-1-0.7-1.3-1.2c-0.3-0.5-0.5-1.1-0.5-1.7v-2.3
				c0-0.8,0.2-1.4,0.7-1.9c0.5-0.5,1.1-0.7,2-0.7c0.8,0,1.5,0.3,1.9,0.8c0.5,0.5,0.7,1.2,0.7,2.1v2l6-0.1v-2c0-1.8-0.3-3.4-1-4.7
				c-0.7-1.3-1.7-2.3-2.9-3c-1.3-0.7-2.8-1-4.6-1c-1.8,0-3.4,0.3-4.7,1s-2.3,1.7-3,2.9c-0.7,1.3-1,2.8-1,4.6v1.8
				c0,1.7,0.3,3.2,0.9,4.3s1.4,2.1,2.3,2.8c0.9,0.7,2,1.4,3.3,2.1l0.3,0.1c0.1,0,0.1,0.1,0.2,0.1c0.1,0,0.1,0.1,0.2,0.1
				c1,0.5,1.8,0.9,2.3,1.2c0.6,0.3,1,0.8,1.4,1.2c0.4,0.5,0.5,1,0.5,1.7v3.1c0,0.9-0.2,1.6-0.7,2.1c-0.5,0.5-1.1,0.7-2,0.7
				c-0.9,0-1.6-0.3-2.1-0.8c-0.5-0.5-0.7-1.2-0.7-2.1v-1.9l-6,0v1.9c0,1.8,0.3,3.4,1,4.7c0.7,1.3,1.7,2.3,3,3c1.3,0.7,2.9,1,4.7,1
				c1.8,0,3.4-0.3,4.7-1c1.3-0.7,2.3-1.7,3-3c0.7-1.3,1-2.9,1-4.7v-2.9c0-1.7-0.3-3.1-0.9-4.2S527.4,333.5,526.6,332.9z"/>
			<polygon points="531.5,321.5 537.3,321.5 537.3,350.8 543.3,350.8 543.3,321.5 549.1,321.5 549.1,315.7 531.5,315.7 			"/>
			<path d="M564.8,316.3c-1.3-0.6-3-1-4.8-1s-3.5,0.3-4.8,1c-1.3,0.6-2.4,1.6-3.1,2.8c-0.7,1.2-1.1,2.7-1.1,4.5v19.3
				c0,1.7,0.4,3.2,1.1,4.5c0.7,1.2,1.7,2.2,3.1,2.8c1.3,0.7,3,1,4.8,1s3.5-0.3,4.8-1c1.3-0.7,2.4-1.6,3.1-2.8
				c0.7-1.2,1.1-2.7,1.1-4.5v-19.3c0-1.7-0.4-3.2-1.1-4.5C567.1,317.9,566.1,317,564.8,316.3z M562.8,342.2c0,0.6-0.1,1.2-0.3,1.6
				c-0.2,0.5-0.6,0.8-1,1c-0.4,0.2-1,0.4-1.6,0.4s-1.1-0.1-1.6-0.4s-0.8-0.6-1-1c-0.2-0.5-0.3-1-0.3-1.6v-17.8
				c0-0.6,0.1-1.2,0.3-1.6c0.2-0.5,0.6-0.8,1-1c0.4-0.2,1-0.4,1.6-0.4s1.1,0.1,1.6,0.4c0.4,0.2,0.8,0.6,1,1c0.2,0.5,0.3,1,0.3,1.6
				V342.2z"/>
			<path d="M586.2,335c1.4-0.6,2.4-1.6,3.1-2.8c0.7-1.2,1.1-2.7,1.1-4.4v-4.1c0-1.7-0.4-3.1-1.1-4.3c-0.7-1.2-1.7-2.1-3.1-2.7
				c-1.3-0.6-3-0.9-4.9-0.9h-2.8h-3.2h-2.7v35.1h5.9V336h2l4.3,14.8h6.4L586.2,335C586.2,335,586.2,335,586.2,335z M578.6,321.5h3.1
				c0.5,0,1,0.1,1.3,0.3c0.4,0.2,0.7,0.5,0.9,0.9s0.3,0.8,0.3,1.4v3.9c0,0.5-0.1,0.9-0.3,1.2c-0.2,0.3-0.5,0.6-0.9,0.8
				c-0.4,0.2-0.8,0.3-1.3,0.3h-3.1V321.5z"/>
			<polygon points="597.7,315.7 595,315.7 595,350.8 597.7,350.8 601,350.8 610.6,350.8 610.6,345 601,345 601,336.3 609.4,336.3 
				609.4,330.5 601,330.5 601,321.6 610.6,321.6 610.6,315.7 601,315.7 			"/>
		</g>
	</g>
	<polygon points="494.4,341.6 495.2,325 494,316 495.6,295.4 494.5,273.1 496.7,254.5 495.1,237.3 496.7,217.5 480.8,218.7 
		454.9,219 443.9,216.1 419.5,219.4 411,216.1 400.3,218.6 399.1,218.6 388.6,218.7 368.6,216.9 370.6,247.5 368.6,262.9 
		370.8,287.6 369.7,322.8 371.8,336.1 367.4,353.5 388.8,350.1 407.6,350.6 411,336.7 387.6,293.4 393.3,250 434.9,228.5 
		472.5,243.7 480.1,286.2 451.8,302.9 430.3,290.9 429.9,269 451.9,264.3 438.8,275.4 440.1,284.7 451.8,289.8 467.3,277.8 
		458.3,254.9 436.9,250.5 418.8,267.4 419.5,289.5 462.6,333.3 465,350.9 480.1,350.5 498,351.7 	"/>
	<polygon points="445.9,330.9 443.3,338 447.1,344.1 454.9,345.7 456.7,338 453.1,332.6 	"/>
	<polygon points="434.2,316 431.8,322.5 435.3,328.1 442.5,329.6 444.2,322.5 440.9,317.5 	"/>
	<polygon points="421,303 418.8,308.9 422,314 428.5,315.4 430,308.9 427,304.4 	"/>
	<polygon points="411.9,289.7 408.9,294.7 411,299.9 416.7,302.2 419.1,296.5 417.2,291.9 	"/>
	<polygon points="411.9,275.2 407.8,277.8 407.4,282.5 410.9,286.4 414.8,283.1 415.1,278.8 	"/>
	<polygon points="413.8,263.1 409.8,264.6 408.6,268.4 410.8,272.3 414.7,270.3 415.7,266.8 	"/>
	<polygon points="421.5,253.3 418.1,253.1 415.9,255.6 416.3,259.1 419.8,258.9 421.7,256.7 	"/>
	<polygon points="432.9,246.9 429.8,245.5 426.9,246.9 425.9,250.4 429.3,251.5 431.9,250.1 	"/>
	<polygon points="436.6,246.8 457.7,251.5 436.6,242 	"/>
</g>
</svg>
