<svg xmlns="http://www.w3.org/2000/svg"  fill="currentColor" viewBox="0 0 24 24">
  <g clip-path="url(#a)">
    <path fill-rule="evenodd" d="M14.8 8.854c.897-1.325 1.006-2.416.65-3.13-.358-.715-1.296-1.281-2.894-1.36-1.561-.076-3.53.344-5.506 1.331-1.975.987-3.493 2.311-4.369 3.606-.896 1.325-1.006 2.416-.649 3.13s1.296 1.281 2.893 1.36c1.562.075 3.532-.344 5.507-1.332 1.974-.987 3.492-2.31 4.368-3.605Zm-3.921 4.5c4.199-2.1 6.646-5.715 5.465-8.077-1.18-2.362-5.542-2.575-9.741-.476s-6.646 5.715-5.465 8.077c1.18 2.362 5.542 2.575 9.74.476Z" clip-rule="evenodd"/>
    <path fill-rule="evenodd" d="M22.5 12v6.139l-.071.118C20.804 20.966 17.345 22.25 14 22.25c-3.345 0-6.803-1.284-8.429-3.993l-.071-.119V14h1v3.858c1.407 2.217 4.399 3.392 7.5 3.392 3.102 0 6.093-1.175 7.5-3.392V12h1Z" clip-rule="evenodd"/>
    <path fill-rule="evenodd" d="M16.964 7.299a13.411 13.411 0 0 0-.383-.075 4.778 4.778 0 0 1-.286.966c.143.024.284.05.423.079.105-.316.186-.637.246-.97Zm4.11 3.279c.292.41.426.822.426 1.203 0 .799-.586 1.726-1.98 2.51-1.362.766-3.312 1.271-5.52 1.271-2.2 0-4.142-.501-5.504-1.262-.452.134-.899.24-1.336.32 1.55 1.18 4.036 1.944 6.84 1.944 4.694 0 8.5-2.141 8.5-4.782 0-.898-.44-1.738-1.206-2.456-.099.405-.17.817-.22 1.253Z" clip-rule="evenodd"/>
    <path fill-rule="evenodd" d="M18.095 5.659c.001.915-.089 1.734-.308 2.532-.219.792-.556 1.528-1.013 2.29l3.23.888c.103-1.784.428-3.15 1.308-4.826l-3.218-.884Zm-.373-1.14a.514.514 0 0 0-.642.524c.1 2.247-.288 3.622-1.493 5.447a.514.514 0 0 0 .284.78l4.468 1.228a.508.508 0 0 0 .639-.478c.064-2.163.374-3.557 1.501-5.526a.512.512 0 0 0-.302-.75l-4.455-1.225Z" clip-rule="evenodd"/>
  </g>
  <defs>
    <clipPath id="a">
      <path d="M0 0h24v24H0z"/>
    </clipPath>
  </defs>
</svg>
