<svg xmlns="http://www.w3.org/2000/svg"  fill="currentColor" viewBox="0 0 24 24">
  <path fill-rule="evenodd" d="m18.64 1.953 2.897.776-.776 2.898-2.898-.777.776-2.897Zm-2.002 3.604.259-.966.776-2.897a1 1 0 0 1 1.225-.707l2.898.776a1 1 0 0 1 .707 1.225l-.776 2.898-.26.965-4.105 15.323a.965.965 0 0 1-.993.724c-1.278-.092-2.183-.337-3.337-.895a.966.966 0 0 1-.499-1.125l4.105-15.32Zm3.864 1.036-2.898-.777-4.1 15.304c1.01.486 1.781.694 2.897.778l4.1-15.305Z" clip-rule="evenodd"/>
  <path fill-rule="evenodd" d="m21.537 2.729-2.898-.776-.13.482a1 1 0 0 0 .708 1.225l.966.259a1 1 0 0 0 1.225-.707l.13-.483ZM18.898.987a1 1 0 0 0-1.225.707l-.129.483a2 2 0 0 0 1.414 2.45l.966.258a2 2 0 0 0 2.45-1.414l.129-.483a1 1 0 0 0-.707-1.225L18.898.987ZM8.545 6a1 1 0 0 1-.972-1.236l.244-1A1 1 0 0 1 8.788 3h.507a1 1 0 0 1 .972.764l.243 1A1 1 0 0 1 9.538 6h-.993ZM5.457 6a1 1 0 0 0 .972-.764l.602-2.472A1 1 0 0 1 8.003 2h2.078a1 1 0 0 1 .972.764l.75 3.08A.204.204 0 0 0 12 6a1 1 0 0 1 1 1v14a1 1 0 0 1-1 1H3a1 1 0 0 1-1-1V7a1 1 0 0 1 1-1h2.457ZM12 7.946A.946.946 0 0 0 11.054 7H4a1 1 0 0 0-1 1v12a1 1 0 0 0 1 1h7a1 1 0 0 0 1-1V7.946Z" clip-rule="evenodd"/>
</svg>
